<?xml version="1.0" encoding="UTF-8" standalone="no"?>
<svg xmlns:sketch="http://www.bohemiancoding.com/sketch/ns" xmlns="http://www.w3.org/2000/svg" height="311px" width="320px" version="1.1" xmlns:xlink="http://www.w3.org/1999/xlink" viewBox="0 0 320 311"><!-- Generator: Sketch 3.3.3 (12081) - http://www.bohemiancoding.com/sketch -->
 <title>Big Shots Logo Copy</title>
 <desc>Created with Sketch.</desc>
 <g id="Homepage" fill-rule="evenodd" sketch:type="MSPage" fill="none">
  <g id="Desktop-Homepage" transform="translate(-35 -2291)" sketch:type="MSArtboardGroup">
   <g id="Big-Shots" transform="translate(0 2251)" sketch:type="MSLayerGroup">
    <g id="Big-Shots-Logo-Copy" sketch:type="MSShapeGroup" transform="translate(33 40)">
     <g id="Box">
      <path id="Line" stroke="#000" stroke-linecap="square" d="m2.5 39.454v270.9"/>
      <path id="Line" stroke="#000" stroke-linecap="square" d="m3.1123 310.5h269.39"/>
      <path id="Line" stroke="#000" stroke-linecap="square" d="m17.5 24.493v270.86"/>
      <path id="Line" stroke="#000" stroke-linecap="square" d="m18.112 295.5h269.4"/>
      <rect id="Rectangle" height="280" width="289" y="0" x="33" fill="#000"/>
     </g>
     <g id="Type" fill="#fff" transform="translate(117 111)">
      <path id="Fill-1" d="m112.2 59.66v-0.326c-2.36-0.362-4.79-3.767-5.51-7.534h-0.33l0.4 6.701c0.94 0.435 3.12 0.978 5.44 1.159zm9.16-6.447c0-3.948-2.79-5.506-6.01-7.281-3.37-1.847-5.51-2.898-5.51-5.542 0-2.282 1.12-3.586 3.3-3.767v-0.326c-3.15 0.253-6.23 2.391-6.23 5.94 0 3.586 3.44 5.434 6.41 7.028 3.22 1.702 5.11 3.006 5.11 5.36 0 3.152-2.11 4.528-4.68 4.673v0.326c3.12-0.217 7.61-1.63 7.61-6.411zm-1.23-10.722l-0.29-5.361c-1.16-0.398-3.66-0.869-5.04-0.869v0.326c2.94 0.398 4.28 2.897 5 5.904h0.33zm-27.688-5.941h-3.55v18.329c0 3.043-0.761 3.912-3.224 4.202v0.29h9.997v-0.29c-2.463-0.29-3.223-1.159-3.223-4.202v-18.329zm1.738 0.29c1.051 0.036 2.029 0.29 3.043 0.797 1.702 0.869 3.007 3.007 3.657 5.615h0.33l-0.4-6.702h-6.63v0.29zm-7.027-0.29h-6.629l-0.398 6.702h0.326c0.652-2.608 1.956-4.746 3.658-5.615 1.015-0.507 1.993-0.761 3.043-0.797v-0.29zm-24.284 0.037c0.906 0.072 1.884 0.326 2.717 0.688 3.767 1.666 5.506 6.121 5.506 11.265 0 5.542-1.92 8.549-4.637 9.997-0.724 0.399-1.811 0.652-2.427 0.761v0.326c5.253-0.362 10.976-4.455 10.976-11.482 0-6.231-3.985-11.773-12.135-11.881v0.326zm-0.398 22.747c-0.906-0.072-1.884-0.326-2.717-0.688-3.767-1.666-5.506-6.121-5.506-11.265 0-5.542 1.92-8.549 4.637-9.997 0.724-0.399 1.811-0.652 2.427-0.761v-0.326c-5.253 0.326-10.976 4.455-10.976 11.482 0 6.231 3.985 11.773 12.135 11.881v-0.326zm-19.993-18.292c0-3.043 0.761-3.912 3.224-4.202v-0.29h-9.997v0.29c2.463 0.29 3.223 1.159 3.223 4.202v13.837c0 3.043-0.76 3.912-3.223 4.202v0.29h9.997v-0.29c-2.463-0.29-3.224-1.159-3.224-4.202v-13.837zm-19.487 13.837c0 3.043-0.761 3.912-3.224 4.202v0.29h9.997v-0.29c-2.463-0.29-3.224-1.159-3.224-4.202v-13.837c0-3.043 0.761-3.912 3.224-4.202v-0.29h-9.997v0.29c2.463 0.29 3.224 1.159 3.224 4.202v13.837zm4.817-6.882h9.853v-0.797h-9.853v0.797zm-21.831 11.663v-0.326c-2.3545-0.362-4.7814-3.767-5.5058-7.534h-0.32601l0.39845 6.701c0.94176 0.435 3.1152 0.978 5.4334 1.159zm9.1643-6.447c0-3.948-2.789-5.506-6.013-7.281-3.3686-1.847-5.5058-2.898-5.5058-5.542 0-2.282 1.1229-3.586 3.2963-3.767v-0.326c-3.1514 0.253-6.2303 2.391-6.2303 5.94 0.00002 3.586 3.4411 5.434 6.4114 7.028 3.2234 1.702 5.1074 3.006 5.1074 5.36 0 3.152-2.101 4.528-4.6728 4.673v0.326c3.1148-0.217 7.6068-1.63 7.6068-6.411zm-1.232-10.722l-0.289-5.361c-1.16-0.398-3.6589-0.869-5.0353-0.869v0.326c2.9343 0.398 4.2743 2.897 4.9983 5.904h0.326z"/>
      <path id="Fill-2" d="m49.305 23.112c-0.906-0.072-1.884-0.326-2.717-0.688-3.767-1.666-5.505-6.122-5.505-11.265 0-5.5424 1.919-8.5489 4.636-9.9978 0.724-0.3984 1.811-0.65196 2.427-0.76062v-0.326c-5.252 0.326-10.975 4.4553-10.975 11.482 0 6.23 3.984 11.772 12.134 11.881v-0.326zm5.506-5.578v3.151c0 1.051-0.544 1.63-1.558 1.956-0.76 0.254-1.34 0.362-2.318 0.435v0.326c2.21-0.073 5.542-0.616 7.172-1.196v-4.672c0-3.043 0.761-3.912 3.224-4.202v-0.29h-9.744v0.29c2.463 0.29 3.224 1.159 3.224 4.202zm3.115-10.287l-0.543-6.2665c-1.413-0.5433-4.347-0.94175-7.643-0.94175v0.28978c0.615 0.07245 1.159 0.07245 1.738 0.21734 3.188 0.68823 5.397 3.2962 6.122 6.7011h0.326zm-31.933 11.41c0 3.042-0.761 3.912-3.224 4.201v0.29h9.997v-0.29c-2.463-0.289-3.223-1.159-3.223-4.201v-13.837c0-3.043 0.76-3.9123 3.223-4.2021v-0.28977h-9.997v0.28978c2.463 0.28978 3.224 1.1591 3.224 4.2018v13.837zm-7.556-1.558c0-4.021-3.586-5.542-7.389-6.013v-0.072c2.97-0.58 5.65-2.5721 5.65-5.2887 0-4.3467-4.6-5.3972-7.7149-5.3972v0.28981c2.5359 0.18111 4.2379 1.3765 4.2379 5.1798 0 2.1371-1.231 4.3103-3.2236 4.9623-0.4347 0.145-1.0505 0.217-1.3765 0.217v0.254c0.6882 0 1.7391 0.109 2.3181 0.326 2.318 0.833 3.84 2.862 3.84 5.542 0 3.115-1.123 5.397-5.7959 5.759v0.29c0.3985 0 1.3769 0 1.9559-0.072 4.057-0.362 7.498-1.992 7.498-5.977zm-18.437 6.049h6.7736v-22.82l-6.7736 0.00013v0.28978c2.4631 0.28978 3.2238 1.1591 3.2238 4.2018v13.837c0 3.042-0.7607 3.912-3.2238 4.201v0.29z"/>
     </g>
     <path id="Line-Copy-18" stroke="#fff" stroke-linecap="square" d="m49.5 263.5h-0.5 0.5v-14.58 14.58zh14.5-14.5v0.42-0.42zl48.28-48.28-48.28 48.28z"/>
     <path id="Line-Copy-31" stroke="#fff" stroke-linecap="square" d="m258 63.784h-0.5 0.5v-14.585 14.585zh14.5-14.5v0.415-0.415zm0-0.004l48.28-48.28-48.28 48.28z" transform="translate(281.64 40.142) rotate(180) translate(-281.64 -40.142)"/>
    </g>
   </g>
  </g>
 </g>
</svg>
